# xmcd
#
# Track frame offsets: 
#        150
#        9279
#        32547
#        48977
#        69003
#        99120
#        107631
#        135247
#        156070
#        182472
#        199353
#        208782
#
# Disc length: 3175 seconds
#
# Revision: 0
# Processed by: cddbd v1.5.2PL0 Copyright (c) Steve Scherf et al.
# Submitted via: ExactAudioCopy v0.95b4
#
DISCID=890c650c
DTITLE=Little Bushman - Pendulum
DYEAR=2007
DGENRE=Blues
TTITLE0=Karanga
TTITLE1=Nature Of Man
TTITLE2=Corrupt Demeanour
TTITLE3=Mary
TTITLE4=The Seed
TTITLE5=The Seed Part II
TTITLE6=Holy Ground
TTITLE7=Next Time
TTITLE8=Pendulum
TTITLE9=War
TTITLE10=Peace
TTITLE11=Peaceful Man
EXTD=
EXTT0=
EXTT1=
EXTT2=
EXTT3=
EXTT4=
EXTT5=
EXTT6=
EXTT7=
EXTT8=
EXTT9=
EXTT10=
EXTT11=
PLAYORDER=
